# xmcd
#
# Track frame offsets:
#	150
#	21442
#	44241
#	65077
#	90948
#	109615
#	123474
#	158712
#	175898
#	190878
#	211369
#	225240
#	240535
#	260223
#	275077
#	289947
#	308671
#
# Disc length: 4310 seconds
#
# Revision: 2
# Processed by: cddbd v1.4b42PL1 Copyright (c) Steve Scherf et al.
# Submitted via: EZCDDA 4.3.2
#
DISCID=f910d411
DTITLE=Tab Benoit - Deal With It
DYEAR=1900
DGENRE=
TTITLE0=Tab Benoit and Debbie Davies, Kenny Neal - Deal With It
TTITLE1=Tab Benoit - Garbage Man
TTITLE2=Tab Benoit - Gone Too Long
TTITLE3=Tab Benoit - Laundromat Blues
TTITLE4=Tab Benoit - Lights Are On, But Nobody's Home
TTITLE5=Tab Benoit - Open Book
TTITLE6=Tab Benoit - Too Many Dirty Dishes
TTITLE7=Tab Benoit - Rainy Day Blues
TTITLE8=Tab Benoit - Time And Time Again
TTITLE9=Tab Benoit - Travelin' South
TTITLE10=Tab Benoit - Up and gone
TTITLE11=Tab Benoit - Voodoo on the bayou
TTITLE12=Tab Benoit - What I live for
TTITLE13=Tab Benoit - Who's been talkin'
TTITLE14=Tab Benoit - Wide open
TTITLE15=Tab Benoit - You got what I want
TTITLE16=Tab Benoit - She's My Number One
EXTD=
EXTT0=
EXTT1=
EXTT2=
EXTT3=
EXTT4=
EXTT5=
EXTT6=
EXTT7=
EXTT8=
EXTT9=
EXTT10=
EXTT11=
EXTT12=
EXTT13=
EXTT14=
EXTT15=
EXTT16=
PLAYORDER=
